<?xml version="1.0" standalone="no"?>
<!DOCTYPE svg PUBLIC "-//W3C//DTD SVG 20010904//EN"
 "http://www.w3.org/TR/2001/REC-SVG-20010904/DTD/svg10.dtd">
<svg version="1.0" xmlns="http://www.w3.org/2000/svg"
 width="1024.000000pt" height="1024.000000pt" viewBox="0 0 1024.000000 1024.000000"
 preserveAspectRatio="xMidYMid meet">

<g transform="translate(0.000000,1024.000000) scale(0.100000,-0.100000)"
fill="#000000" stroke="none">
<path d="M4786 5875 c-51 -18 -94 -60 -106 -104 -6 -20 -10 -177 -10 -358 l0
-323 -337 0 c-307 0 -342 -2 -378 -19 -48 -22 -78 -54 -94 -100 -15 -46 -15
-631 0 -686 14 -50 64 -100 114 -114 25 -7 160 -11 367 -11 l327 0 3 -337 c4
-481 -24 -452 438 -453 298 0 307 1 350 23 52 26 78 59 90 113 5 21 10 177 10
347 l0 307 338 0 c334 0 339 0 382 23 30 16 51 37 67 67 l24 45 -3 345 -3 345
-24 34 c-49 68 -66 71 -443 71 l-337 0 -3 338 c-4 485 18 461 -443 461 -221 0
-299 -3 -329 -14z"/>
</g>
</svg>
