<?xml version="1.0" standalone="no"?>
<!DOCTYPE svg PUBLIC "-//W3C//DTD SVG 20010904//EN"
 "http://www.w3.org/TR/2001/REC-SVG-20010904/DTD/svg10.dtd">
<svg version="1.0" xmlns="http://www.w3.org/2000/svg"
 width="1024.000000pt" height="1024.000000pt" viewBox="0 0 1024.000000 1024.000000"
 preserveAspectRatio="xMidYMid meet">

<g transform="translate(0.000000,1024.000000) scale(0.100000,-0.100000)"
fill="#000000" stroke="none">
<path d="M4124 8689 c-322 -37 -637 -281 -765 -592 -60 -144 -62 -159 -66
-484 l-5 -303 -728 0 -728 0 -78 -23 c-117 -34 -207 -88 -300 -181 -96 -97
-153 -189 -191 -311 l-28 -90 -3 -2030 c-2 -1396 1 -2056 8 -2112 33 -255 188
-473 415 -583 157 -77 -158 -70 3477 -68 l3263 3 78 27 c201 72 358 213 448
404 74 156 69 -5 69 2278 0 2018 0 2054 -20 2132 -63 251 -234 434 -490 526
l-65 23 -730 5 -730 5 -6 290 c-5 278 -7 294 -33 379 -115 379 -449 664 -828
705 -116 13 -1855 13 -1964 0z m1994 -165 c325 -66 591 -329 656 -646 12 -58
16 -138 16 -323 l0 -245 -244 0 -244 0 -4 228 c-3 224 -3 228 -31 283 -30 62
-103 136 -163 167 -82 42 -120 43 -1029 40 l-870 -3 -57 -27 c-76 -35 -151
-107 -185 -177 -27 -55 -28 -59 -31 -284 l-4 -227 -241 2 -242 3 1 260 c1 283
7 333 62 464 97 230 319 422 547 475 39 8 81 17 95 19 14 3 445 5 958 6 815 1
943 -1 1010 -15z m-117 -669 c54 -19 96 -58 120 -110 16 -35 19 -67 19 -237
l0 -198 -1025 0 -1025 0 0 195 c0 213 6 243 58 299 15 16 45 37 67 47 38 18
84 19 891 19 741 0 857 -2 895 -15z m2430 -722 c175 -60 312 -198 376 -380
l28 -78 0 -2045 c0 -1947 -1 -2048 -18 -2109 -50 -177 -171 -324 -327 -399
-47 -22 -112 -45 -144 -51 -42 -8 -1028 -11 -3245 -11 -2772 0 -3194 2 -3249
15 -215 51 -401 242 -447 461 -22 104 -22 4064 0 4169 46 217 218 394 428 440
52 11 600 13 3297 12 l3235 -2 66 -22z"/>
<path d="M4624 6225 c-80 -48 -79 -38 -82 -572 l-3 -472 -492 -3 c-558 -3
-545 -2 -592 -83 l-25 -42 0 -461 c0 -302 4 -470 11 -489 15 -40 48 -73 94
-94 37 -17 75 -19 523 -19 l482 0 0 -472 c0 -437 2 -476 19 -513 20 -44 69
-92 104 -100 12 -3 225 -4 474 -3 438 3 452 4 480 24 15 11 38 40 51 64 22 44
22 46 22 522 l0 478 473 0 c298 0 486 4 510 11 51 14 104 63 117 107 14 51 14
921 -1 959 -15 40 -48 73 -94 94 -37 17 -75 19 -525 19 l-485 0 -2 475 c-3
537 -1 525 -78 570 l-42 25 -449 0 -449 0 -41 -25z"/>
</g>
</svg>
